<?xml version="1.0" encoding="utf-8"?>
<!-- Generator: Adobe Illustrator 16.0.0, SVG Export Plug-In . SVG Version: 6.00 Build 0)  -->
<!DOCTYPE svg PUBLIC "-//W3C//DTD SVG 1.1//EN" "http://www.w3.org/Graphics/SVG/1.1/DTD/svg11.dtd">
<svg version="1.1" id="Layer_1" xmlns="http://www.w3.org/2000/svg" xmlns:xlink="http://www.w3.org/1999/xlink" x="0px" y="0px"
	 width="1280px" height="663.286px" viewBox="0 0 1280 663.286" enable-background="new 0 0 1280 663.286" xml:space="preserve">
<g>
	<g>
		<polygon points="300.494,495.413 300.494,528.716 263.699,528.716 263.699,492.224 250.153,495.413 250.153,528.716 
			233.449,528.716 236.653,542.282 250.153,542.282 250.153,565.222 263.699,565.222 263.699,542.282 300.494,542.282 
			300.494,565.222 314.041,565.222 314.041,492.224 		"/>
	</g>
	<g>
		<polygon points="675.567,492.224 615.879,492.224 619.109,505.763 638.963,505.763 638.963,565.392 652.49,565.392 
			652.49,505.763 675.567,505.763 		"/>
	</g>
	<g>
		<path d="M460.062,566.882c-21.001,0-38.081-17.059-38.081-38.074c0-20.988,17.079-38.074,38.081-38.074
			s38.087,17.086,38.087,38.074C498.149,549.823,481.063,566.882,460.062,566.882z M460.062,504.261
			c-13.52,0-24.548,11.008-24.548,24.547s11.028,24.574,24.548,24.574c13.533,0,24.542-11.035,24.542-24.574
			S473.595,504.261,460.062,504.261z"/>
	</g>
	<g>
		<g>
			<polygon points="864.396,505.763 804.239,505.763 801.01,492.224 864.396,492.224 			"/>
		</g>
		<g>
			<polygon points="864.225,565.433 804.239,565.433 801.01,551.892 864.225,551.892 			"/>
		</g>
		<g>
			<polygon points="851.055,535.597 804.239,535.597 801.01,522.032 851.055,522.032 			"/>
		</g>
	</g>
	<g>
		<polygon points="1041.333,535.269 1027.82,535.269 1027.82,551.853 991.024,551.853 991.024,492.224 977.485,495.413 
			977.485,565.392 1041.333,565.392 		"/>
	</g>
	<g>
		<g>
			<path fill-rule="evenodd" clip-rule="evenodd" d="M657.46,123.214h20.138l3.521-23.625H610.21l3.507,23.625h20.118v8.701h-47.566
				l3.52,23.639h44.903c-0.211,2.333-0.224,5.142-0.475,8.385c-0.514,6.051,2.07,13.5,2.465,19.551
				c0.303,4.18-0.053,5.419,0.132,8.886c0.198,3.02-0.066,10.112-0.013,13.619c0.013,0.949,0.501,0.817,0.672,0.646
				c0.303-0.237,0.277-14.436,1.2-15.794c1.503-2.122,0.62,4.364,0.633,8.794c0.053,4.482-1.912,8.728-2.004,9.531
				c-0.409,3.389-0.158,3.784,0.62,9.07c0.488,3.164-0.976,1.872-0.382,3.955c0.237,0.805,1.833,2.65,1.925,3.48
				c0.356,3.876,0.593,4.535,0.844,8.648c0.185,3.454-1.147,4.733-0.923,8.267c0.079,1.081,1.107,5.603,1.305,6.645
				c0.409,2.268,0.264,2.162,0.303,4.39c0.066,3.942-2.689,3.981-0.356,6.038c1.464,1.266,0.698,1.45,3.942,2.03
				c0.804,0.146,1.199,0.04,1.529-0.132c0.619-0.369,0.738-0.264,1.146-0.303c0.396-0.014,0.963-0.633,1.199-1.055
				c0.211-0.422,0.633-0.422,0.91-0.633c0.448-0.409,0.883-0.923,0.699-2.07c-0.436-2.702-0.527-6.223,1.002-13.553
				c0.316-1.529,0.658-6.908,0.658-8.464c0-6.671,0.766-5.55,1.188-9.795c0.053-0.541-0.08-1.095,0-1.596
				c0.197-1.397,0.949-2.795,0.909-3.704c-0.026-0.817-0.646-1.397-0.606-2.281c0.039-2.307,0.923-3.955,0.396-7.066
				c-0.105-0.54,0.856-1.608,0-2.347c-0.329-0.276-1.331,1.332-1.187-0.329c0.026-0.277-0.475-0.896-0.211-1.2
				c1.252-1.292-0.25-1.727-0.355-2.86c-0.08-0.659,0.422-2.07,0.422-2.241c0.184-1.279-0.304-1.714-0.08-2.821
				c0.146-0.686-0.487-0.857-0.816-0.857c-0.383,0-0.555,1.661-0.646,3.217c-0.039,1.081-0.053,2.109-0.053,2.505
				c-0.039,0.369-0.039,0.831-0.039,1.306c0,0.316-0.133,2.162-0.133,4.68c0,0.646,1.002,7.238,0.369,6.908
				c-0.264-0.132-0.236-1.74-0.447-3.493c-0.186-1.438,0.211-2.795-0.186-2.795c-1.041-0.014-0.25,2.742-0.25,4.008
				c0,3.691,0.646,3.955,0.554,4.72c-0.013,0.633-0.198,0.501-0.475,0.593c-0.448,0.185,0,0.976-0.487,1.068
				c-0.673,0.118-0.515-15.794-0.555-16.229c-0.053-0.606-0.698-0.593-0.58-1.266c0.093-0.527,0.857-0.698,0.857-1.041
				c-0.026-0.369-1.503-0.185-1.146-0.87c0.5-0.791,1.331,0.936,1.516-1.556c0.066-1.055-0.765-2.03-0.606-2.519
				c0.146-0.54-1.556-1.094-1.569-1.397c-0.065-0.83,1.253,0.567,1.582-0.422c0.277-0.804-0.171-1.357,0.158-1.582
				c0.304-0.185,0.027-0.686,0.949-0.83c0.488-0.066,0.502,0.092,1.068,1.252c0.172,0.304-0.436,1.886,0.976,2.848
				c0.501,0.369,0.817,1.688,0.87,2.044c0.185,0.896-0.145,1.067-0.172,1.898c-0.025,1.832,0.673,1.199,0.699,2.399
				c0.039,0.633-0.58,3.941,0.092,3.968c0.409,0.04,1.095-3.138,1.293-8.846c0.039-0.462,0.869-1.912,0.896-2.373
				c0.065-0.58-0.383-1.2-0.198-1.793c1.2-3.784,1.187-6.935,0.949-8.042c-0.251-1.239-2.413-2.584-2.413-3.151
				c0.04-1.146,1.293,1.266,1.346-3.507c0.118-8.397,0.487-9.123,0.487-9.123l0.567-2.9c0,0-0.884-2.505-0.62-4.061
				c1.002-3.56,1.266-6.314,1.067-8.45h44.423l3.52-23.639H657.46V123.214z"/>
		</g>
		<g>
			<polygon fill-rule="evenodd" clip-rule="evenodd" points="701.526,90.888 705.046,67.263 586.269,67.263 589.789,90.888 			"/>
		</g>
	</g>
	<g>
		<g>
			<g>
				<path d="M736.806,444.367c0.844-0.29-0.014-1.292-0.383-1.858c-5.3-8.675-10.072-17.653-13.407-26.565
					c-0.448-1.173-0.778-2.399-1.239-3.533c-2.176-4.917-3.744-5.722-4.614-8.608c-0.594-2.136,1.239-1.635-0.04-6.354
					c-1.187-4.588-2.347-8.648-3.27-11.602c-0.448-1.569-1.371-5.129-1.371-5.155c1.121-0.804,4.324-2.992,5.88-3.797
					c5.393-2.795,9.348-5.418,13.988-8.187c0.777-0.462,2.28-1.292,3.124-1.793c0.817-0.436,1.2-1.424,2.782-2.229
					c0.501-0.29,4.957-1.357,5.893-1.727c2.703-1.002,5.472-0.831,6.144-1.2c8.016-4.219,9.229-6.513,17.205-10.705
					c6.473-3.454,8.714-8.411,4.878-14.133c-2.967-4.377-8.715-8.068-10.112-9.294c-1.213-1.042-0.936-3.032-2.531-3.705
					c-1.688-0.672-2.057-0.039-3.282-0.132c-2.61-0.303-4.983,0.659-7.541,3.085c-2.426,2.399-4.799,5.129-7.831,6.724
					c-4.509,2.413-7.977,4.522-12.564,6.816c-0.896,0.461-2.992,0.58-3.902,1.015c-0.765,0.369-3.032,2.479-3.783,2.874
					c-4.391,2.176-7.225,3.164-11.589,5.393c-7.501,3.823-16.176,8.345-18.812,9.571c-0.436,0.237-4.892,2.465-6.104,2.821
					c1.872-1.596,6.157-6.275,8.636-8.478c2.188-1.925,3.414-5.484,4.258-8.793c0.462-1.807-0.355-2.308-0.646-3.533
					c-0.383-1.385,0.659-2.018-1.635-3.863c-4.18-3.375-8.161-7.079-12.617-10.31c-2.544-1.832-5.827-3.665-9.202-1.595
					c-1.146,0.659-3.177,0.566-4.271,1.239c-1.213,0.751,0.738,2.32-6.499,3.81c-2.176,0.409-5.597,0-9.696,0.699
					c-6.725,1.134-26.249,2.927-30.586,3.862c-2.479,0.515-2.993-0.501-4.509-0.369c-1.411,0.105-2.254,0.831-3.388,0.937
					c-11.061,0.923-21.555,1.688-27.765,2.663c-3.032,0.487-2.149,0.54-5.669,0.856c-3.797,0.316-7.62-0.065-12.221,0.264
					c-4.456,0.356-7.093,1.002-9.334,1.081c-4.324,0.132-6.895,0.158-11.074,0.515c-14.357,1.397-15.28,3.401-25.781,4.799
					c-1.377,0.158-2.874-0.277-5.517,1.556c-0.765,0.54-1.463,0.606-1.793,1.964c-0.771,3.257,0.349,2.531,0.495,3.955
					c0.085,0.87-0.666,2.03,0,3.626c0.718,1.793,1.232,2.597,1.035,4.957c-0.152,1.688-0.567,1.529-0.949,2.254
					c-0.633,1.239-1.767,2.36-3.46,3.401c-4.107,2.624-8.214,5.577-11.404,9.07c-8.016,9.018-16.281,17.996-23.031,27.805
					c-1.299,1.858-1.075,3.955-2.294,5.854c-2.136,3.388-5.498,6.789-6.098,10.547c-0.633,3.783-0.092,7.844,2.393,12.273
					c5.537,10.033,11.028,15.966,21.826,13.566c1.002-0.237,2.129,0.369,3.21,0.369c1.898,0,1.661,0,5.919-0.541
					c1.8-0.197,2.531-3.085,3.342-3.454c3.625-1.7,3.843-3.296,7.205-5.392c8.609-5.353,16.961-11.074,25.504-16.453
					c4.482-2.835,8.965-5.59,13.474-8.358c4.627-2.861,8.082-8.438,13.17-10.271c1.674-0.633,2.927,0.369,5.471-0.765
					c8.648-3.73,17.205-8.055,24.179-14.133c7.752-6.815,3.309-3.823,5.458-6.987c1.213-1.727,2.558-1.16,4.667-4.192
					c1.279-1.819,1.516-2.558,1.78-3.823c0.211-1.002,0.369-3.019,0.461-4.192c0.04-0.355,0.053-1.331-0.198-2.03
					c-0.198-0.633-0.62-1.055-1.094-1.424c-0.356-0.303-0.936-0.132-1.055-0.566c-0.158-0.527,0.369-1.134,0.725-1.529
					c0.962-1.002,1.622-1.068,2.887-1.292c2.479-0.541,6.921-1.266,12.234-1.464c3.375-0.171,6.737-0.065,10.468-0.501
					c2.03-0.264,1.674-1.16,1.147-1.371c-1.002-0.329-2.769-1.661-3.691-2.017c-0.804-0.343,0.857-0.436,1.015-0.567
					c0.923-0.606,4.087,1.596,5.418,2.097c1.674,0.554,3.56,0.224,4.601,0.725c1.015,0.501,2.043,0.937,3.059,0.937
					c1.568,0.065,2.967-0.896,3.758-1.002c0.949-0.132,2.597-1.095,4.812-1.397c-4.442,6.381-10.876,16.229-15.069,21.713
					c-5.471,7.251-16.479,19.156-21.832,26.513c-1.147,1.463-0.751,3.955-0.659,5.919c-0.053,1.16,0.659,2.663,0.844,3.85
					c0.396,2.637,1.318,2.202,1.951,3.626c0.422,1.041-0.29,2.57,0.145,3.203c0.976,1.424,2.571,1.121,3.388,1.688
					c1.595,1.174,1.793,2.861,4.021,4.087c4.865,2.663,8.635,3.665,12.946,0.778c4.521-2.967,12.999-11.575,17.508-14.607
					c1.16-0.791,1.701-1.002,3.006-2.993c1.589-2.399,2.261-3.164,3.672-3.296c1.595-0.158,2.201,0.541,4.152-0.566
					c3.652-2.057,19.684-12.934,19.736-12.867c8.318,29.438,27.369,49.755,27.369,49.755c1.647,2.465,5.142,3.586,7.198,5.88
					c0.962,1.107,0.896,2.333,2.268,3.203c1.055,0.726,1.688,1.397,2.162,1.859c1.621,1.424,7.646,5.722,12.234,7.211
					c0.909,0.343,1.292,0.369,1.911,0.738c0.488,0.264,0.436,0.633,1.002,0.791c0.58,0.198,3.02,0.567,3.744,0.567
					c2.334,0,2.018,0.501,3.31-0.989c1.477-1.767-1.925-2.096-3.942-8.358c-0.382-1.16-3.757-8.042-4.574-8.569
					c-1.068-0.738-1.279-0.145-1.517-0.909C736.357,445.066,736.542,444.433,736.806,444.367z M545.94,385.608
					c-2.123,1.397-5.023,4.192-10.692,7.817c-0.422,0.264-3.823,4.549-4.245,4.852c-1.015,0.633-3.401,0.264-4.812,1.2
					c-2.637,1.688-7.442,3.454-7.442,3.454c2.261-3.85,6.585-15.597,17.831-24.008c5.498-2.426,7.304-3.757,11.219-6.657
					c0.936-0.659,2.188-4.048,3.217-4.918c1.925-1.568,1.556,1.569,4.865-0.369c6.71-3.955,8.767-2.162,16.229-2.953
					c0.633-0.065,1.213-0.197,1.767-0.197c0.185,0.264,0.343,0.527,0.461,0.791C563.21,370.539,557.317,378.12,545.94,385.608z"/>
			</g>
		</g>
		<g>
			<path d="M749.896,402.97c-0.475-3.335,2.584-8.253,5.827-11.681c1.582-1.661,3.296-3.361,4.588-5.247
				c4.931-7.422,9.269-15.135,14.528-22.319c7.08-9.638,14.792-18.958,22.148-28.397c2.018-2.571,3.758-5.287,5.537-7.91
				c3.138-4.614,9.427-6.342,14.634-3.56c4.971,2.623,10.323,5.154,11.101,11.904c0.172,1.78,1.385,2.769,1.055,3.89
				c-0.237,0.765-0.475,1.964-1.318,2.953c-0.87,1.055-1.252,1.397-1.964,2.268c-2.097,2.426-2.241,3.19-5.551,6.987
				c-2.992,3.414-6.882,7.475-9.769,11.166c-4.456,5.788-10.151,10.415-14.067,16.493c-6.645,10.349-4.179,5.655-5.866,8.279
				c-0.58,0.976,0.435,1.872-0.211,2.86c-4.391,6.961-8.701,13.936-13.171,20.962c-1.239,1.886-2.268,1.16-2.32,2.953
				c-0.092,2.729-0.448,3.454-0.962,3.955c-0.884,0.87-0.211,1.438-1.095,2.07c-0.896,0.633-1.199,0.29-1.978,0.396
				c-1.12,0.105-2.057,0.659-3.44,0.791c-1.464,0.079-2.36,1.002-5.709-0.225C754.432,418.699,751.149,411.975,749.896,402.97z"/>
		</g>
		<g>
			<g>
				<path d="M1122.399,326.875c-1.833,0.343-2.466,0.066-3.837,0.501c-1.964,0.554-1.028,3.072-3.335,2.967
					c-0.62,0,1.437-2.967-0.515-3.691c-0.698-0.277-4.034-0.765-4.97-0.686c-1.292,0.118-2.07-0.079-3.243-0.198
					c-5.695-0.554-9.519,0.146-12.867,0.817c-1.78,0.356-6.381-0.065-7.277,0.356c-0.633,0.343-0.422,1.463,0.382,1.463
					c1.239,0.026,1.714,0.04,2.782-0.092c0.435-0.04,3.56,0.25,4.759,0.791c0.831,0.369-0.316,1.028,0.304,1.872
					c0.58,0.712,7.646,0.487,8.675,0.593c1.199,0.119,6.262,0.304,5.945,1.543c-0.501,1.688-7.316,1.371-8.675,1.187
					c-2.188-0.251-5.128-0.132-7.896,0c-5.234,0.264-4.219-0.172-7.488,0.053c-2.795,0.171-1.965,2.637-7.924,2.57
					c-4.192-0.053-8.622-0.633-8.529-2.228c0.185-1.991,1.226-2.32,2.228-2.558c1.846-0.462,2.61-0.567,5.906-0.567
					c0.501,0,1.859-0.039,2.558-0.197c3.283-0.633,2.927-1.701,2.347-2.399c-1.647-2.03-4.983-1.912-8.279-1.754
					c-7.29,0.264-13.368,0.896-16.466,0.831c-0.963-0.053-0.343-2.03-1.279-2.729c-1.727-1.305-23.242-1.951-24.416-2.069
					c-1.951-0.198-5.115-0.765-6.657-0.963c-4.904-0.527-3.046,6.275-4.839,6.275c-1.199,0,0.448-5.01-2.136-5.339
					c-1.806-0.225-6.235-0.172-8.081-0.369c-3.758-0.369-8.279-0.594-11.352-1.028c-4.706-0.673-7.805,0.501-11.641,0.026
					c-1.16-0.146-5.103-1.569-6.275-1.292c-1.49,0.303-1.925,1.925-3.178,1.99c-1.938,0.066-2.689,1.556-2.781,2.202
					c-0.172,1.067,21.845,1.463,22.425,1.647c1.608,0.515,2.03,2.32-1.74,2.519c-2.162,0.118-10.744,0-12.643-0.211
					c-1.503-0.198-9.796-1.028-10.798-0.778c-3.164,0.778-2.755-1.647-3.48-2.28c-0.422-0.264,0-2.162-2.399-2.716
					c-3.217-0.791-7.053,1.173-10.362,1.252c0,0-5.59,0.237-7.515,0.527c-12.722,1.938-20.289,0.436-30.862,1.174
					c-4.522,0.355-7.62,0.079-12.155-0.053c-3.441-0.119-5.551-0.805-9.031-1.081c-2.821-0.237-8.292-0.396-11.101-0.304
					c-1.173,0.066-5.497,0.567-6.657,0.633c-6.961,0.501-7.857,2.479-17.851,2.756c-1.002,0-2.452,1.041-2.531,1.74
					c-0.264,2.043-1.411,2.307-1.45,4.113c-0.053,1.437,0.87,1.041,0.804,1.951c-0.026,0.619-0.659,0.619-0.619,1.727
					c0,1.253-0.462,1.529,0.065,2.162c1.068,1.213,0.488,2.215-2.215,3.705c-0.844,0.501-0.264,1.582-1.199,1.951
					c-1.239,0.514-2.387,1.107-4.324,2.544c-2.439,1.859-7.488,7.344-9.611,9.374c-3.335,3.229-2.373,3.73-4.271,5.194
					c-0.408,0.29-2.162,0.355-2.966,1.12c-4.113,3.691-7.054,7.924-10.468,12.143c-5.63,6.987-11.074,14.396-6.922,24.416
					c2.466,5.919,5.472,10.705,10.745,12.129c1.753,0.435,2.966,0.303,4.641,0.501c1.437,0.132,3.771,1.173,6.275,0.501
					c3.335-0.87,4.864-3.099,6.71-3.863c3.679-1.463,2.03-0.527,5.472-2.32c7.422-3.929,14.766-7.448,22.175-11.338
					c4.113-2.268,9.083-4.799,13.131-7.158c1.318-0.791,1.41-2.519,2.122-2.888c1.213-0.633,1.134,0.026,3.521-1.16
					c1.978-1.002,3.282-1.239,5.3-2.228c8.358-4.192,17.112-7.792,25.233-12.34c2.716-1.529,3.361-1.965,5.497-3.89
					c2.545-2.307,0.791-2.531,1.358-3.625c0.382-0.699,2.347-1.174,3.56-2.967c1.278-1.832,0.514-4.785,0.118-7.475
					c-0.197-1.174-1.199-3.731-1.199-3.731c2.307,0.066,4.245-0.026,5.906-0.132c2.241-0.158,4.073-1.094,6.354-1.266
					c5.669-0.355,11.113-0.25,16.822-0.527c5.089-0.237,10.19-0.237,15.293-0.566c3.032-0.185,4.943-0.04,8.635-0.185
					c2.531-0.119,1.608-5.432,3.942-5.695c2.294-0.29,1.832,2.953,6.051,2.716c15.398-0.844,37.679-1.397,54.079-0.976
					c0.923,0.053,4.061,0,4.971,0.145c0.817,0.105,2.109,0.04,3.507-0.211c0.751-0.118,0.804-0.87,1.345-0.949
					c0.949-0.105,8.385,3.586,14.646,3.428c5.208-0.105,12.498-1.727,20.83-1.16c1.16,0.093,2.268-0.633,3.468-0.765
					c1.911-0.171,2.584-1.173,7.33-1.542c1.12-0.066,6.024-0.237,6.446-0.396c1.846-0.594,3.612-1.596,5.498-1.728
					c4.245-0.197,8.517,0.198,12.774,0.146c3.718,0,10.508-0.343,14.146-0.778c3.955-0.514,4.258-0.896,3.981-2.188
					c-0.237-1.067-2.057-1.081-5.458-1.041c-3.507,0.065-10.402-0.198-10.824-0.198c-0.949-0.092-3.533-0.211-3.572-1.397
					c-0.105-1.727,19.195-0.83,21.291-0.856c2.097-0.105,3.032-0.185,5.604-0.383c3.243-0.224,4.838-0.053,5.959-0.29
					c0.751-0.132,1.213-0.804,1.331-1.529c0.158-1.661-1.793-4.034-4.614-2.32c-1.345,0.791-1.292,0.726-3.44,0.831
					c-1.042,0.053-2.769,0.25-4.259,0.053c-1.397-0.225-14.792-0.29-16.295-0.857c-1.331-0.501-2.86-0.751-3.85-0.765
					C1125.88,326.69,1124.324,326.545,1122.399,326.875z M895.193,355.878c-11.391,4.852-9.611,6.948-15.966,9.967
					c-6.657,3.138-10.362,5.563-14.119,7.555c-8.385,4.495-14.818,6.156-15.135,5.154c1.318-2.755,4.298-6.513,8.569-10.046
					c4.245-3.52,6.987-7.844,9.347-9.439c1.807-1.266,2.861-1.266,7.515-4.061c3.111-1.885,1.807,1.529,5.089,0.501
					c4.931-1.621,8.49-2.518,14.897-2.096C898.41,353.519,898.001,354.653,895.193,355.878z"/>
			</g>
		</g>
		<g>
			<path d="M325.748,318.635c0.416-0.606,7.238-0.436,7.871-0.448c7.481-0.251,14.963-0.369,22.412-0.62
				c1.193-0.053,2.445-0.132,3.533-0.554c0.343-0.145,0.31-0.988-0.013-1.081c-1.872-0.566-5.26,0.356-5.083-0.566
				c0.429-2.32,2.551-1.754,4.054-2.492c1.945-0.923,1.424-3.81-1.391-3.322c-4.357,0.738-3.236,2.782-5.662,3.626
				c-1.437,0.501-3.375-0.277-5.115-0.501c-3.256-0.409-1.312,1.898-5.029,0.988c-1.365-0.355-6.427-0.988-11.45-0.316
				c-1.859,0.264-5.003-0.619-10.31,5.577c-0.435,0.54-4.054-0.857-6.11-0.963c-4.212-0.197-7.066,1.517-12.406-0.158
				c-3.065-0.976-9.09-0.237-10.791-0.29c-7.488-0.25-7.719,0.923,0.066,1.213c0.475,0,5.056,0.066,5.913,0.264
				c1.206,0.369,1.199,1.424,0.355,1.438c-1.608,0-7.844,0.053-10.448-0.264c-4.614-0.475-9.176-1.807-13.75-1.78
				c-3.876,0-8.589-0.923-10.619-0.435c-1.78,0.382-4.12,0.725-5.043,0.58c-1.411-0.146-1.714,0.514-2.67,0.329
				c-4.996-1.094-8.338-1.424-13.328,0.343c-0.666,0.211-2.011,0.211-3.263,0.04c-2.597-0.343-4.462-0.422-7.89,0.053
				c-1.167,0.171-3.791-3.876-5.419-4.391c-0.916-0.303-1.635-0.619-2.894-0.619c-13.994-0.014-15.774,5.537-29.742,6.104
				c-1.721,0.04-3.382,1.385-5.128,1.503c-1.912,0.132-3.896-0.435-5.682-0.171c-2.143,0.039-4.212,0.053-6.348,0.105
				c-3.856,0.065-6.263,0.461-10.119,0.065c-1.892-0.171-2.149-5.484-3.158-5.194c-0.422,0.304-0.956,5.129-1.898,5.261
				c-6.69,1.094-12.438,1.595-19.946,1.489c-0.93,0-1.925-0.487-2.729-0.962c-4.943-3.006-5.873-20.329-2.649-24.812
				c0.811-1.174,3.513-2.176,4.996-1.872c15.484,2.939,26.051,2.347,41.647,2.215c14.989-0.158,17.791-0.237,32.794-0.436
				c10.514-0.118,21.067-0.369,31.581-0.501c4.18-0.079,8.358-0.132,12.531-0.197c1.173,0,2.34-0.04,3.494-0.066
				c13.072-0.145,26.156-0.316,39.241-0.527c21.384-0.369,42.794-0.659,64.171-1.424c19.532-0.646,27.969-3.177,47.467-4.008
				c5.096-0.211,9.71,1.767,14.838,1.661c5.953-0.105,11.865,2.308,17.792,2.083c6.11-0.25,12.214-0.118,18.332-0.197
				c3.553-0.079,7.08-0.422,10.646-0.448c6.314-0.172,14.33-3.362,20.658-3.375c3.178-0.014,6.269,0.013,9.427,0
				c5.557-0.066,9.531,3.203,15.102,3.164c10.758-0.225,21.568-0.726,32.366-0.726c7.66,0,15.412,0.515,23.098,0.817
				c5.999,0.198,11.997,0.198,17.943,0.765c5.194,0.448,16.809,0.014,21.964,0.805c1.463,0.25,1.542,0.856,3.428,0.962
				c1.081-0.039,4.496,0.58,6.328,0.501c1.951-0.118,3.731-0.132,2.439,2.426c-1.991,3.006-9.782,5.3-12.313,6.553
				c-3.217,1.608-1.397,2.122-5.801,3.56c-1.239,0.396-8.503-0.383-9.861-0.105c-3.349,0.646-6.473-0.277-9.835,0.461
				c-3.019,0.673-5.946,1.78-9.031,2.057c-7.014,0.554-14.291,2.241-21.331,2.756c-5.102,0.329-9.044,1.964-14.159,2.505
				c-0.831,0.053-6.354-0.04-7.488-0.211c-4.219-0.659-10.613,2.241-14.436,2.307c-7.034,0.026-7.547-1.74-14.535-1.041
				c-3.659,0.369-3.006,3.941-3.593,4.957c-8.642,14.766-9.525,12.3-10.725,13.328c-1.286,1.121-1.51,0.963-2.96,1.121
				c-1.22,0.145-1.76,0.633-2.149,1.173c-0.468,0.738,0.053,1.767,0.323,3.23c0.29,1.793-1.285,1.16-1.516,2.465
				c-0.58,3.718-3.56,6.144-13.217,17.745c-1.272,1.543-5.491,3.969-7.08,5.827c-1.127,1.332-1.595,4.654-2.558,5.814
				c-14.041,17.534-10.975,20.79-12.703,23.256c-0.25,0.396-3.15,2.86-4.166,3.889c-4.482,4.391-0.923-1.568-1.127-2.702
				c-0.455-2.36,1.16-2.65,0.765-4.153c-0.31-1.134,2.347-2.294,2.848-4.126c0.87-3.257,7.33-14.226,6.73-14.423
				c-1.318-0.369-11.312,16.69-11.978,17.02c-1.78,0.805-3.309,12.472-6.361,16.031c-1.779,2.097-7.468,8.886-10.243,12.867
				c-3.151,4.456,0.988,2.637-6.216,12.037c-12.03,15.636-25.714,25.114-28.767,35.951c-1.042,3.731-6.17,3.823-8.767,6.987
				c-0.62,0.765-2.063,1.728-3.157,1.701c-5.096-0.04-10.725,0.923-13.751-4.101c-2.637-4.351-5.847-9.136-7.896-13.632
				c-2.018-4.548,28.542-39.273,32.458-43.928c8.708-10.349,28.688-37.679,37.138-48.186c7.423-9.321,14.938-18.589,22.445-27.844
				c5.096-6.249,10.296-12.459,16.183-19.644c-2.327,0.158-4.041-2.795-5.813-2.795c-1.444-0.04-2.927-1.635-4.351-1.49
				c-2.927,0.251-12.109,1.648-17.363,1.002c-10.777-1.292-4.68,0.369-15.517,0.422c-5.63,0.026-11.127,0.158-16.704,0
				c-7.587-0.303-10.929,1.74-14.515,1.754c-3.02,0-5.412-1.187-9.604-0.831c-1.16,0.066-1.615,0.831-2.802,0.937
				c-1.153,0.105-0.85-0.896-4.37-0.436c-4.753,0.554-9.255,1.477-14.034,1.793c-2.109,0.132-7.429,3.56-8.523-0.461
				c-0.079-0.277-1.562-0.396-2.406-0.396c-6.375-0.014-12.795-0.567-19.163-0.541c-0.751,0-6.994,0.211-7.422-0.026
				C324.634,319.69,325.695,318.727,325.748,318.635z"/>
		</g>
	</g>
</g>
</svg>
